<?xml version="1.0" encoding="UTF-8" standalone="no"?>
<svg
   viewBox="0 0 1920 1080.0001"
   version="1.1"
   id="svg26"
   sodipodi:docname="background.svg"
   width="1920"
   height="1080"
   inkscape:version="1.2.2 (b0a8486541, 2022-12-01)"
   inkscape:export-filename="background.png"
   inkscape:export-xdpi="96"
   inkscape:export-ydpi="96"
   xmlns:inkscape="http://www.inkscape.org/namespaces/inkscape"
   xmlns:sodipodi="http://sodipodi.sourceforge.net/DTD/sodipodi-0.dtd"
   xmlns:xlink="http://www.w3.org/1999/xlink"
   xmlns="http://www.w3.org/2000/svg"
   xmlns:svg="http://www.w3.org/2000/svg"
   xmlns:rdf="http://www.w3.org/1999/02/22-rdf-syntax-ns#"
   xmlns:cc="http://creativecommons.org/ns#"
   xmlns:dc="http://purl.org/dc/elements/1.1/">
  <sodipodi:namedview
     id="namedview28"
     pagecolor="#ffffff"
     bordercolor="#999999"
     borderopacity="1"
     inkscape:showpageshadow="0"
     inkscape:pageopacity="0"
     inkscape:pagecheckerboard="0"
     inkscape:deskcolor="#d1d1d1"
     showgrid="true"
     inkscape:zoom="0.5"
     inkscape:cx="857"
     inkscape:cy="403"
     inkscape:window-width="2560"
     inkscape:window-height="1377"
     inkscape:window-x="0"
     inkscape:window-y="0"
     inkscape:window-maximized="1"
     inkscape:current-layer="layer1"
     showguides="true">
    <inkscape:grid
       type="xygrid"
       id="grid190" />
  </sodipodi:namedview>
  <defs
     id="defs4">
    <linearGradient
       inkscape:collect="always"
       id="linearGradient961">
      <stop
         style="stop-color:#006eff;stop-opacity:1;"
         offset="0"
         id="stop957" />
      <stop
         style="stop-color:#a4cfff;stop-opacity:1;"
         offset="1"
         id="stop959" />
    </linearGradient>
    <style
       id="style2">.cls-1{fill:#fff;}</style>
    <linearGradient
       inkscape:collect="always"
       xlink:href="#linearGradient961"
       id="linearGradient963"
       x1="27.129259"
       y1="31.694072"
       x2="46.481555"
       y2="31.694072"
       gradientUnits="userSpaceOnUse"
       gradientTransform="matrix(55.807332,0,0,131.24054,-2594.0117,-3199.5475)" />
  </defs>
  <title
     id="title6">HGD_LogoOnly_Bl</title>
  <g
     inkscape:groupmode="layer"
     id="layer1"
     inkscape:label="Layer 1">
    <rect
       style="fill:url(#linearGradient963);fill-opacity:1;stroke:#000000;stroke-width:0;stroke-linecap:round;stroke-linejoin:round;stroke-dasharray:none;stroke-opacity:0"
       id="rect255"
       width="1080"
       height="1919.9999"
       x="-1080"
       y="5.6266785e-05"
       transform="rotate(-90)" />
  </g>
  <g
     id="Layer_2"
     data-name="Layer 2"
     transform="matrix(0.86426631,0,0,0.86426631,30,792.00907)">
    <g
       id="Final-Husky_Games"
       data-name="Final-Husky Games">
      <g
         id="black">
        <g
           id="bl-alone">
          <g
             id="face">
            <path
               id="white-bg"
               class="cls-1"
               d="m 135.5,298.49 c -14.37,0 -27.07,-5 -34,-13.5 -9,-10.93 -21.33,-32.47 -26.8,-42.28 a 85.3,85.3 0 0 1 -27.61,-18 96.25,96.25 0 0 1 -21.65,-31.8 c -6.42,-15 -9.78,-32.42 -10,-51.75 a 116.5,116.5 0 0 1 3.33,-29.83 C 13.84,99.89 0,65.56 0,37.82 0,21.32 3.8,10.43 11.63,4.52 c 9.51,-7.21 21.09,-4 26,-2.58 10.98,3.06 26.78,10.27 52.7,38.83 a 165.52,165.52 0 0 1 45.16,-7.47 165.53,165.53 0 0 1 45.16,7.47 C 206.59,12.21 222.39,5 233.29,1.94 c 5,-1.39 16.57,-4.63 26.08,2.58 7.82,5.91 11.62,16.8 11.62,33.3 0,27.74 -13.84,62.07 -18.81,73.51 a 117.1,117.1 0 0 1 3.34,29.83 c -0.22,19.34 -3.59,36.75 -10,51.75 a 96.26,96.26 0 0 1 -21.65,31.8 85.29,85.29 0 0 1 -27.6,18 c -5.48,9.81 -17.84,31.35 -26.8,42.28 -6.9,8.45 -19.6,13.5 -33.97,13.5 z" />
            <path
               id="black-head"
               d="m 245.33,110.78 0.46,-1 c 4.39,-10 18.71,-44.56 18.71,-71.92 0,-14.32 -3,-23.52 -9,-28.12 -6.94,-5.26 -15.67,-2.82 -20.37,-1.51 -10.28,2.89 -25.34,9.87 -51,38.49 l -1.42,1.59 -2,-0.67 A 158.12,158.12 0 0 0 135.57,39.85 158.12,158.12 0 0 0 90.36,47.6 l -2,0.67 -1.42,-1.59 C 61.26,18.06 46.2,11.08 35.95,8.2 A 37.57,37.57 0 0 0 25.83,6.47 16.58,16.58 0 0 0 15.55,9.7 c -6.09,4.6 -9,13.8 -9,28.12 0,27.36 14.32,62 18.71,71.92 l 0.46,1 -0.29,1.1 a 109.37,109.37 0 0 0 -3.4,29.2 c 0.2,18.48 3.38,35.05 9.46,49.28 A 89.82,89.82 0 0 0 51.63,220 78.05,78.05 0 0 0 78.12,237 l 1.13,0.42 0.58,1.05 c 3.94,7.1 17.52,31.12 26.73,42.36 5.6,6.86 16.69,11.12 28.94,11.12 12.25,0 23.34,-4.26 28.94,-11.11 9.21,-11.24 22.79,-35.26 26.73,-42.36 l 0.58,-1.05 1.13,-0.42 a 78,78 0 0 0 26.48,-17 89.83,89.83 0 0 0 20.18,-29.67 c 6.08,-14.21 9.26,-30.79 9.48,-49.27 a 109.92,109.92 0 0 0 -3.41,-29.21 z M 19.1,37.78 a 63.51,63.51 0 0 1 0.6,-9.32 v 0 C 28.84,17.89 66,58 69.75,62.15 49.39,74.15 39.32,89.4 34.56,99.53 29.2,86.49 19.09,59.1 19.09,37.81 Z M 219.24,201 a 72.27,72.27 0 0 1 -8.62,10 c -12,11.57 -27.37,15.78 -27.37,15.78 0,0 -18.46,33.82 -28.56,46.15 -3.12,3.83 -10.78,6 -19.19,6 -8.41,0 -16.07,-2.19 -19.19,-6 -10.1,-12.33 -28.56,-46.15 -28.56,-46.15 0,0 -15.38,-4.25 -27.37,-15.78 a 73.2,73.2 0 0 1 -8.62,-10 c -11.65,-33.74 -17.94,-70.11 8.15,-70.11 23.35,0 22.41,-56.37 42.78,-56.37 18.34,0 23.09,32.88 32.81,32.88 9.72,0 14.5,-32.88 32.81,-32.88 20.37,0 19.44,56.37 42.78,56.37 26.11,-0.01 19.82,36.36 8.15,70.11 z M 236.44,99.54 C 231.68,89.4 221.61,74.11 201.25,62.16 205,58 242.15,17.89 251.3,28.49 v 0 a 63.53,63.53 0 0 1 0.6,9.32 c 0,21.29 -10.1,48.68 -15.46,61.72 z" />
            <polygon
               id="eye-l"
               points="89.68,181.75 89.68,166.74 74.66,166.74 74.66,150.08 89.68,150.08 89.68,135.06 106.33,135.06 106.33,150.08 121.35,150.08 121.35,166.74 106.33,166.74 106.33,181.75 " />
            <g
               id="eye-r">
              <circle
                 cx="154"
                 cy="158.66"
                 r="8.5900002"
                 id="circle11" />
              <circle
                 cx="187.74001"
                 cy="158.66"
                 r="8.5900002"
                 id="circle13" />
              <circle
                 cx="170.57001"
                 cy="175.23"
                 r="8.5900002"
                 id="circle15" />
              <circle
                 cx="171.08"
                 cy="141.59"
                 r="8.5900002"
                 id="circle17" />
            </g>
            <ellipse
               id="nose"
               cx="135.5"
               cy="238.50999"
               rx="23.75"
               ry="18.959999" />
          </g>
        </g>
      </g>
    </g>
  </g>
  <metadata
     id="metadata188">
    <rdf:RDF>
      <cc:Work
         rdf:about="">
        <dc:title>HGD_LogoOnly_Bl</dc:title>
      </cc:Work>
    </rdf:RDF>
  </metadata>
</svg>
