<svg xmlns="http://www.w3.org/2000/svg" viewBox="0 0 270.99 298.49"><defs><style>.cls-1{fill:#fff;}</style></defs><title>HGD_LogoOnly_Bl</title><g id="Layer_2" data-name="Layer 2"><g id="Final-Husky_Games" data-name="Final-Husky Games"><g id="black"><g id="bl-alone"><g id="face"><path id="white-bg" class="cls-1" d="M135.5,298.49c-14.37,0-27.07-5-34-13.5-9-10.93-21.33-32.47-26.8-42.28a85.3,85.3,0,0,1-27.61-18,96.25,96.25,0,0,1-21.65-31.8c-6.42-15-9.78-32.42-10-51.75a116.5,116.5,0,0,1,3.33-29.83C13.84,99.89,0,65.56,0,37.82c0-16.5,3.8-27.39,11.63-33.3,9.51-7.21,21.09-4,26-2.58C48.61,5,64.41,12.21,90.33,40.77a165.52,165.52,0,0,1,45.16-7.47,165.53,165.53,0,0,1,45.16,7.47C206.59,12.21,222.39,5,233.29,1.94c5-1.39,16.57-4.63,26.08,2.58,7.82,5.91,11.62,16.8,11.62,33.3,0,27.74-13.84,62.07-18.81,73.51a117.1,117.1,0,0,1,3.34,29.83c-.22,19.34-3.59,36.75-10,51.75a96.26,96.26,0,0,1-21.65,31.8,85.29,85.29,0,0,1-27.6,18c-5.48,9.81-17.84,31.35-26.8,42.28C162.57,293.44,149.87,298.49,135.5,298.49Z"/><path id="black-head" d="M245.33,110.78l.46-1c4.39-10,18.71-44.56,18.71-71.92,0-14.32-3-23.52-9-28.12-6.94-5.26-15.67-2.82-20.37-1.51-10.28,2.89-25.34,9.87-51,38.49l-1.42,1.59-2-.67a158.12,158.12,0,0,0-45.14-7.79A158.12,158.12,0,0,0,90.36,47.6l-2,.67-1.42-1.59C61.26,18.06,46.2,11.08,35.95,8.2A37.57,37.57,0,0,0,25.83,6.47,16.58,16.58,0,0,0,15.55,9.7c-6.09,4.6-9,13.8-9,28.12,0,27.36,14.32,62,18.71,71.92l.46,1-.29,1.1a109.37,109.37,0,0,0-3.4,29.2c.2,18.48,3.38,35.05,9.46,49.28A89.82,89.82,0,0,0,51.63,220a78.05,78.05,0,0,0,26.49,17l1.13.42.58,1.05c3.94,7.1,17.52,31.12,26.73,42.36,5.6,6.86,16.69,11.12,28.94,11.12s23.34-4.26,28.94-11.11c9.21-11.24,22.79-35.26,26.73-42.36l.58-1.05,1.13-.42a78,78,0,0,0,26.48-17,89.83,89.83,0,0,0,20.18-29.67c6.08-14.21,9.26-30.79,9.48-49.27a109.92,109.92,0,0,0-3.41-29.21Zm-226.23-73a63.51,63.51,0,0,1,.6-9.32h0C28.84,17.89,66,58,69.75,62.15c-20.36,12-30.43,27.25-35.19,37.38C29.2,86.49,19.09,59.1,19.09,37.81ZM219.24,201a72.27,72.27,0,0,1-8.62,10c-12,11.57-27.37,15.78-27.37,15.78s-18.46,33.82-28.56,46.15c-3.12,3.83-10.78,6-19.19,6s-16.07-2.19-19.19-6c-10.1-12.33-28.56-46.15-28.56-46.15S72.37,222.53,60.38,211a73.2,73.2,0,0,1-8.62-10c-11.65-33.74-17.94-70.11,8.15-70.11,23.35,0,22.41-56.37,42.78-56.37,18.34,0,23.09,32.88,32.81,32.88S150,74.52,168.31,74.52c20.37,0,19.44,56.37,42.78,56.37C237.2,130.88,230.91,167.25,219.24,201Zm17.2-101.46c-4.76-10.14-14.83-25.43-35.19-37.38C205,58,242.15,17.89,251.3,28.49h0a63.53,63.53,0,0,1,.6,9.32C251.9,59.1,241.8,86.49,236.44,99.53Z"/><polygon id="eye-l" points="121.35 150.08 121.35 166.74 106.33 166.74 106.33 181.75 89.68 181.75 89.68 166.74 74.66 166.74 74.66 150.08 89.68 150.08 89.68 135.06 106.33 135.06 106.33 150.08 121.35 150.08"/><g id="eye-r"><circle cx="154" cy="158.66" r="8.59"/><circle cx="187.74" cy="158.66" r="8.59"/><circle cx="170.57" cy="175.23" r="8.59"/><circle cx="171.08" cy="141.59" r="8.59"/></g><ellipse id="nose" cx="135.5" cy="238.51" rx="23.75" ry="18.96"/></g></g></g></g></g></svg>